<?xml version="1.0" encoding="UTF-8"?>
<svg version="1.1" xmlns="http://www.w3.org/2000/svg" width="508" height="523">
<path d="M0 0 C167.64 0 335.28 0 508 0 C508 172.59 508 345.18 508 523 C340.36 523 172.72 523 0 523 C0 350.41 0 177.82 0 0 Z " fill="#000100" transform="translate(0,0)"/>
<path d="M0 0 C1.30845286 3.92535858 0.24435512 6.71124828 -0.8125 10.5625 C-1.17578362 11.91727249 -1.53642486 13.27275607 -1.89453125 14.62890625 C-2.08192871 15.33184814 -2.26932617 16.03479004 -2.46240234 16.7590332 C-3.03490323 19.14549353 -3.4331368 21.53328903 -3.83984375 23.953125 C-4.8803479 29.28347183 -7.07611654 33.50376392 -9.75 38.1875 C-20.4734347 57.90862668 -28.13196263 80.31044502 -28.16796875 102.99609375 C-28.17129715 103.74729996 -28.17462555 104.49850616 -28.17805481 105.2724762 C-28.18309269 106.85832107 -28.18546411 108.44417643 -28.18530273 110.0300293 C-28.18746556 112.39976625 -28.20558891 114.76901849 -28.22460938 117.13867188 C-28.27486623 130.34984582 -27.51484267 143.45404969 -23.6875 156.1875 C-23.4694873 156.93741211 -23.25147461 157.68732422 -23.02685547 158.45996094 C-19.52698212 170.24026793 -14.68272308 181.12925518 -9 192 C-8.505 192.97066406 -8.01 193.94132813 -7.5 194.94140625 C-3.92474632 201.77130662 0.29241727 207.90272495 5 214 C5.67804688 214.88429688 6.35609375 215.76859375 7.0546875 216.6796875 C19.59036602 232.52147903 34.60566636 245.72467179 52 256 C52.86117432 256.52158691 52.86117432 256.52158691 53.73974609 257.05371094 C67.26990928 265.21925825 81.55861119 271.42875369 97 275 C89.09029381 280.27313746 74.17271054 279.11737072 65 278 C59.82938667 276.64941262 55.47408158 273.84953257 51 271 C49.76033934 270.28756653 48.51670931 269.58200267 47.26953125 268.8828125 C36.85480498 262.97311648 27.20849514 256.17183732 18.63916016 247.78759766 C12.06749261 241.3927661 5.1238821 237.7610493 -3.1328125 233.89990234 C-18.25477966 226.61177853 -24.29418414 215.14985921 -31.94042969 200.92358398 C-32.77595394 199.40674169 -33.67410871 197.92440007 -34.59375 196.45703125 C-36.52490046 193.08288225 -37.87874082 189.56867419 -39.25 185.9375 C-39.53101562 185.23044922 -39.81203125 184.52339844 -40.1015625 183.79492188 C-41.6036364 179.83524687 -42.05663933 178.22655734 -41 174 C-37.04 173.01 -37.04 173.01 -33 172 C-33.25692627 171.07888428 -33.25692627 171.07888428 -33.51904297 170.13916016 C-34.30808441 167.30212729 -35.09156486 164.46358591 -35.875 161.625 C-36.14441406 160.65949219 -36.41382812 159.69398438 -36.69140625 158.69921875 C-49.22980677 113.13283639 -40.68750897 64.44340337 -17.61572266 23.72265625 C-12.64691716 15.34971595 -7.16470026 6.6746618 0 0 Z " fill="#589576" transform="translate(118,159)"/>
<path d="M0 0 C3.29829946 1.09943315 3.68655532 1.57681153 5.55859375 4.31640625 C6.26145508 5.34024414 6.26145508 5.34024414 6.97851562 6.38476562 C7.45998047 7.10341797 7.94144531 7.82207031 8.4375 8.5625 C9.15389648 9.59987305 9.15389648 9.59987305 9.88476562 10.65820312 C14.95503326 18.12102504 18.64820989 24.18333775 18.42578125 33.3828125 C18.42084908 34.54790848 18.42084908 34.54790848 18.41581726 35.73654175 C18.40021278 38.19995013 18.3563446 40.66195111 18.3125 43.125 C18.30098554 44.75259273 18.29120725 46.38019872 18.28320312 48.0078125 C18.08879154 73.80447098 18.08879154 73.80447098 14.69506836 82.82763672 C12.35411517 90.14404046 13.01081559 98.19216733 13.32006836 105.75585938 C13.77643199 119.09192423 12.4120434 127.94117859 5 139 C4.44957031 139.9384375 3.89914062 140.876875 3.33203125 141.84375 C-1.38460637 149.76304279 -7.14454115 157.04218509 -12.74804688 164.34716797 C-13.77307928 165.70041863 -14.75951708 167.08282502 -15.734375 168.47265625 C-16.15203125 168.97667969 -16.5696875 169.48070312 -17 170 C-17.66 170 -18.32 170 -19 170 C-19.78375 169.175 -20.5675 168.35 -21.375 167.5 C-23.87859195 164.54022989 -23.87859195 164.54022989 -28 165 C-29.96165233 166.7348052 -29.96165233 166.7348052 -31.75 169.0625 C-35.53794972 173.52463526 -39.46248335 177.3127846 -44 181 C-44.91136719 181.74894531 -45.82273437 182.49789062 -46.76171875 183.26953125 C-82.9156736 212.07475249 -130.22188351 228.30989179 -176.609375 223.578125 C-181.17318924 223.03414668 -185.6278268 222.45739107 -190 221 C-190 220.34 -190 219.68 -190 219 C-177.39269702 214.11413054 -165.82302582 210.36318585 -152.23730469 210.22192383 C-135.9910288 210.01614545 -120.27602346 206.33000384 -105 201 C-103.37578125 200.51853516 -103.37578125 200.51853516 -101.71875 200.02734375 C-84.71397717 194.70323035 -68.46977773 184.56770537 -55 173 C-54.12601563 172.25234375 -53.25203125 171.5046875 -52.3515625 170.734375 C-49.85305473 168.53568817 -47.41746275 166.28732202 -45 164 C-44.17886719 163.23171875 -43.35773438 162.4634375 -42.51171875 161.671875 C-18.35491306 138.37915412 -2.12094203 105.03177176 3 72 C3.10296387 71.34161133 3.20592773 70.68322266 3.31201172 70.00488281 C6.62081172 47.95667046 5.42959865 27.0292095 0.45898438 5.33056641 C0 3 0 3 0 0 Z " fill="#5F9A75" transform="translate(415,228)"/>
<path d="M0 0 C-0.33 3.63 -0.66 7.26 -1 11 C0.464375 11.2475 1.92875 11.495 3.4375 11.75 C8.67616142 12.7074577 13.87140591 13.8152854 19.0625 15 C20.18773071 15.2489502 20.18773071 15.2489502 21.33569336 15.50292969 C26.76606698 16.76606698 26.76606698 16.76606698 29 19 C31.06874034 19.6425235 31.06874034 19.6425235 33 20 C33 20.66 33 21.32 33 22 C33.96421875 22.23460938 34.9284375 22.46921875 35.921875 22.7109375 C40.67610507 24.07509095 44.9004563 26.30411101 49.25 28.625 C50.51396606 29.29704468 50.51396606 29.29704468 51.8034668 29.98266602 C58.29948336 33.49860606 64.20694858 37.41169821 70 42 C71.05960938 42.78503906 72.11921875 43.57007813 73.2109375 44.37890625 C100.16012917 64.51410907 120.88294228 92.17546504 132 124 C132 124.66 132 125.32 132 126 C128.66541993 124.88847331 128.11566925 124.16574325 126 121.5 C123.1902527 118.13349858 120.24784589 115.5773295 116.74609375 112.94921875 C110.78563793 108.13633616 107.0487138 102.78893953 103.0625 96.3125 C94.43734888 82.8686169 85.34204414 71.26506584 73 61 C72.22398437 60.33742188 71.44796875 59.67484375 70.6484375 58.9921875 C65.21413992 54.47835726 59.50007864 50.62837935 53.46972656 46.96875 C51.94784159 46.02908532 50.46905035 45.02029145 49 44 C49 43.34 49 42.68 49 42 C48.34644531 41.91492188 47.69289063 41.82984375 47.01953125 41.7421875 C42.95463796 40.74305461 39.43397671 38.96364028 35.6875 37.125 C25.95827457 32.377764 16.19395164 29.0925019 5.80664062 26.07421875 C4.94361328 25.82027344 4.08058594 25.56632812 3.19140625 25.3046875 C2.01880249 24.9641333 2.01880249 24.9641333 0.82250977 24.61669922 C-1 24 -1 24 -2 23 C-13.06878303 21.1559156 -24.11899754 20.67896055 -35.3215332 20.73925781 C-37.69703384 20.75004329 -40.0717866 20.73924603 -42.44726562 20.7265625 C-59.63428916 20.7107747 -74.90763208 23.98598289 -91.25 29.23046875 C-94 30 -94 30 -97 30 C-97.33 30.99 -97.66 31.98 -98 33 C-99.90625 33.59765625 -99.90625 33.59765625 -102.5 34.0625 C-117.95145807 37.88512634 -131.88519744 49.64306719 -143.875 59.625 C-144.41092773 60.06835693 -144.94685547 60.51171387 -145.49902344 60.96850586 C-148.19673431 63.25851184 -150.54142785 65.57153675 -152.7578125 68.3359375 C-153.49773437 69.21507812 -154.23765625 70.09421875 -155 71 C-155.66 71 -156.32 71 -157 71 C-155.26482048 64.92687167 -152.86095057 59.3932843 -150.0625 53.75 C-149.72669922 53.06486328 -149.39089844 52.37972656 -149.04492188 51.67382812 C-145.22287356 44.09626618 -140.82121277 39.86362826 -133.6875 35.375 C-132.58631836 34.65957031 -132.58631836 34.65957031 -131.46289062 33.9296875 C-127.08923998 31.1355185 -122.80351856 28.95214084 -118 27 C-116.18055814 26.07604446 -114.36786916 25.13865966 -112.5625 24.1875 C-107.79842026 21.77862864 -103.00219394 19.77519806 -98 17.9375 C-97.31566895 17.68476318 -96.63133789 17.43202637 -95.92626953 17.17163086 C-92.90121377 16.05806693 -89.87310176 14.95435428 -86.83984375 13.86328125 C-79.30730168 10.97394815 -73.01943802 6.89794743 -66.4453125 2.3046875 C-49.421793 -9.3252183 -19.30359688 -5.33786418 0 0 Z " fill="#579476" transform="translate(291,88)"/>
<path d="M0 0 C4.14762191 1.55294681 6.4377637 4.58443512 9.125 7.9375 C9.56714844 8.47568359 10.00929688 9.01386719 10.46484375 9.56835938 C20.02488486 21.2801318 17.63200116 36.50493638 17 51 C16.55804259 55.33219367 15.83294677 59.59579608 15.05859375 63.87915039 C13.86260068 71.11029777 14.00516906 78.12514558 14.20077515 85.43746948 C14.50090981 97.63209157 14.36984907 105.92363739 7 116 C6.0929584 117.37235529 5.19229465 118.74893989 4.296875 120.12890625 C-0.08895391 126.78362873 -4.71105552 133.03165704 -10 139 C-12.58874635 138.4498914 -13.90393437 138.07805332 -16 136.375 C-17.83878434 134.82124579 -17.83878434 134.82124579 -19.76953125 135.05078125 C-23.15155911 136.49006806 -25.24027596 139.16033229 -27.6875 141.8125 C-47.67485527 162.47942535 -75.09661977 175.34739403 -103 181 C-104.0828125 181.22816406 -105.165625 181.45632813 -106.28125 181.69140625 C-114.21059434 183.09474318 -122.08804018 183.20242727 -130.125 183.25 C-131.20966553 183.2593457 -132.29433105 183.26869141 -133.41186523 183.27832031 C-140.78460581 183.24926077 -147.76928856 182.42696441 -155 181 C-155 180.34 -155 179.68 -155 179 C-145.34056334 174.15372264 -136.68034746 170.41007385 -125.75 170.3125 C-90.10750857 169.94792179 -57.12317359 153.06032367 -32.25 128.2578125 C-5.71895072 100.8553054 3.86831132 64.56991763 3.3046875 27.38671875 C3.05505208 18.99192749 1.83666274 11.17752218 0 3 C0 2.01 0 1.02 0 0 Z " fill="#8EC06F" transform="translate(385,237)"/>
<path d="M0 0 C2.20780966 -0.00214512 4.41508441 -0.02017822 6.62280273 -0.03930664 C16.11076813 -0.0757019 25.2012631 0.67412745 34.57397461 2.18530273 C34.24397461 5.81530273 33.91397461 9.44530273 33.57397461 13.18530273 C36.54397461 13.51530273 39.51397461 13.84530273 42.57397461 14.18530273 C42.57397461 14.84530273 42.57397461 15.50530273 42.57397461 16.18530273 C44.30647461 16.33999023 44.30647461 16.33999023 46.07397461 16.49780273 C50.59648345 17.05207114 54.36101203 18.47155524 58.57397461 20.18530273 C59.56397461 20.51530273 60.55397461 20.84530273 61.57397461 21.18530273 C61.57397461 21.84530273 61.57397461 22.50530273 61.57397461 23.18530273 C66.02897461 24.17530273 66.02897461 24.17530273 70.57397461 25.18530273 C70.57397461 25.84530273 70.57397461 26.50530273 70.57397461 27.18530273 C71.46084961 27.28842773 72.34772461 27.39155273 73.26147461 27.49780273 C76.6566501 28.2024618 78.79339559 29.14075934 81.57397461 31.18530273 C81.57397461 31.84530273 81.57397461 32.50530273 81.57397461 33.18530273 C82.27393555 33.4237793 82.97389648 33.66225586 83.69506836 33.90795898 C110.29415387 45.7097242 129.36280276 75.471991 140.79272461 100.89624023 C141.57397461 103.18530273 141.57397461 103.18530273 141.57397461 107.18530273 C137.93807574 105.59406229 135.17330937 103.34591234 132.13647461 100.81030273 C128.09868882 97.44342058 128.09868882 97.44342058 123.92944336 94.24389648 C121.25975817 91.91068903 119.97302968 89.75017738 118.32397461 86.62280273 C114.72744423 80.18524945 110.3501126 74.77364904 105.57397461 69.18530273 C104.89979492 68.32420898 104.22561523 67.46311523 103.53100586 66.57592773 C100.58762748 62.9804236 97.13080283 60.15651799 93.57397461 57.18530273 C92.81987305 56.54334961 92.06577148 55.90139648 91.28881836 55.23999023 C84.29968198 49.44412104 76.71211342 44.25437214 68.57397461 40.18530273 C68.57397461 39.52530273 68.57397461 38.86530273 68.57397461 38.18530273 C67.79022461 38.12342773 67.00647461 38.06155273 66.19897461 37.99780273 C62.06798116 37.07189041 58.84712268 35.4313037 55.13647461 33.43920898 C52.32606216 32.06399192 49.55838867 31.12906136 46.57397461 30.18530273 C45.91816406 29.94851807 45.26235352 29.7117334 44.58666992 29.46777344 C15.80411344 19.23839977 -19.68595499 20.77177039 -47.42993164 33.41967773 C-48.13061768 33.75708984 -48.83130371 34.09450195 -49.55322266 34.44213867 C-51.42602539 35.18530273 -51.42602539 35.18530273 -54.42602539 35.18530273 C-54.42602539 35.84530273 -54.42602539 36.50530273 -54.42602539 37.18530273 C-55.58102539 37.61842773 -56.73602539 38.05155273 -57.92602539 38.49780273 C-68.7516363 43.3110886 -80.46488152 51.41770532 -88.42602539 60.18530273 C-88.75602539 61.17530273 -89.08602539 62.16530273 -89.42602539 63.18530273 C-91.48852539 63.87280273 -91.48852539 63.87280273 -93.42602539 64.18530273 C-91.75323522 54.48311977 -88.87293812 42.50147793 -80.48852539 36.49389648 C-79.80790039 36.06206055 -79.12727539 35.63022461 -78.42602539 35.18530273 C-77.51852539 34.5575293 -76.61102539 33.92975586 -75.67602539 33.28295898 C-68.08506004 28.18530273 -68.08506004 28.18530273 -63.42602539 28.18530273 C-63.42602539 27.52530273 -63.42602539 26.86530273 -63.42602539 26.18530273 C-59.696374 24.15094743 -57.75697497 23.18530273 -53.42602539 23.18530273 C-53.42602539 22.52530273 -53.42602539 21.86530273 -53.42602539 21.18530273 C-52.87889893 21.04133057 -52.33177246 20.8973584 -51.76806641 20.74902344 C-37.95900388 16.9813425 -27.68567508 11.79341057 -16.88037109 2.38110352 C-12.32190189 -1.36698817 -5.62255304 -0.00060949 0 0 Z " fill="#86B96F" transform="translate(250.426025390625,115.814697265625)"/>
<path d="M0 0 C1.10399843 3.59386724 0.62220179 5.79246433 -0.41015625 9.40234375 C-1.16109541 12.70945992 -1.41970496 16.00054247 -1.75 19.375 C-2.42211408 25.20826889 -3.92009039 29.12418664 -7.21484375 33.95703125 C-13.68506724 44.98614307 -17.82108714 58.46715535 -20 71 C-20.20238281 71.99644531 -20.40476562 72.99289063 -20.61328125 74.01953125 C-24.80562942 97.6050546 -21.76522598 120.61354157 -14 143 C-13.71640625 143.85464844 -13.4328125 144.70929688 -13.140625 145.58984375 C-8.51231769 158.36135212 -1.04248294 170.91347304 8 181 C8.73089844 181.83789062 9.46179688 182.67578125 10.21484375 183.5390625 C12.442318 186.05972567 14.71303121 188.53334081 17 191 C17.5775 191.65484375 18.155 192.3096875 18.75 192.984375 C32.48129088 207.81907318 52.19944947 218.40164931 71.37670898 224.14990234 C73.26605766 224.71926041 75.13553637 225.35379385 77 226 C77.33 226.66 77.66 227.32 78 228 C63.44119203 232.0030765 53.58434551 232.74353677 40.23999023 225.40380859 C29.94949306 219.44155191 20.43858268 212.44431611 11.9375 204.125 C6.17685419 198.73412538 -0.72019358 196.66392916 -8 194 C-21.29165796 188.94296979 -26.23146421 173.98191962 -32.05175781 161.93896484 C-33.39215524 159.19812129 -34.78678725 156.48518006 -36.18359375 153.77270508 C-37.20192679 151.56154594 -37.69869884 149.41040928 -38 147 C-31.375 144 -31.375 144 -28 144 C-28.25394531 143.175 -28.50789063 142.35 -28.76953125 141.5 C-29.11371094 140.345 -29.45789063 139.19 -29.8125 138 C-30.14894531 136.88625 -30.48539062 135.7725 -30.83203125 134.625 C-34.18732354 121.99586548 -35.55044737 109.84798704 -35.4375 96.8125 C-35.43412628 96.05097626 -35.43075256 95.28945251 -35.42727661 94.50485229 C-35.34734617 81.99729029 -34.48002767 70.07891871 -31 58 C-30.76394043 57.17580566 -30.52788086 56.35161133 -30.28466797 55.50244141 C-24.10099965 34.71877735 -13.56131674 16.78135542 0 0 Z " fill="#87BB70" transform="translate(143,177)"/>
<path d="M0 0 C11.88 -0.12375 11.88 -0.12375 24 -0.25 C26.4853125 -0.28641602 28.970625 -0.32283203 31.53125 -0.36035156 C33.52082457 -0.37204379 35.51040877 -0.38223435 37.5 -0.390625 C39.02560547 -0.4213208 39.02560547 -0.4213208 40.58203125 -0.45263672 C48.60468479 -0.45653879 53.92246335 1.57145024 60.3125 6.3125 C65.1368147 11.1368147 66.17958759 15.2390903 66.5 21.875 C66.29810468 28.89744607 64.10926461 33.7727499 59.25 38.81640625 C53.48061542 43.97652392 49.31361388 45.2973752 41.515625 45.1953125 C40.70003113 45.1924826 39.88443726 45.18965271 39.04412842 45.18673706 C36.44593472 45.17556558 33.84808905 45.15046675 31.25 45.125 C29.48568207 45.11496627 27.72135872 45.10584111 25.95703125 45.09765625 C21.63777973 45.07733992 17.31927824 45.03818615 13 45 C13 53.91 13 62.82 13 72 C8.71 72 4.42 72 0 72 C0 48.24 0 24.48 0 0 Z " fill="#7DB172" transform="translate(221,238)"/>
<path d="M0 0 C6.74185667 3.0763812 12.90580565 7.0562401 16 14 C18.19620678 26.53162211 17.02155987 40.30085438 14.43725586 52.67944336 C13.11690258 59.68667836 14.16132538 65.49741991 16.34375 72.2265625 C18.01243111 79.27872672 16.69698458 83.64784472 13.125 89.625 C12.72514893 90.31142578 12.32529785 90.99785156 11.91333008 91.70507812 C9.07132888 96.47237693 6.00545139 101.05152437 2.6875 105.5 C2.27967285 106.05768066 1.8718457 106.61536133 1.45166016 107.18994141 C0.26171875 108.71875 0.26171875 108.71875 -2 111 C-6.68091299 111 -7.62101604 110.00354129 -11 107 C-14.40330702 108.45207766 -16.38575125 110.28797802 -18.875 113 C-39.1011871 133.55614121 -68.79923217 144.85897267 -97.35131836 145.29541016 C-98.94085327 145.30386963 -98.94085327 145.30386963 -100.5625 145.3125 C-101.5738501 145.31813965 -102.5852002 145.3237793 -103.62719727 145.32958984 C-109.41741661 145.27283713 -114.44826062 144.65694005 -120 143 C-117.31063859 139.84628841 -114.01589596 138.27214091 -110.375 136.375 C-106.44826546 134.53887489 -106.44826546 134.53887489 -103 132 C-101.52900395 131.84429621 -100.05169072 131.74754213 -98.57421875 131.67578125 C-73.34612865 130.17086363 -51.67087553 123.09985505 -32 107 C-31.34773438 106.49984375 -30.69546875 105.9996875 -30.0234375 105.484375 C-16.55035237 94.77973202 -8.11612772 78.74088042 -2 63 C-1.68160156 62.19949219 -1.36320312 61.39898437 -1.03515625 60.57421875 C5.14936678 43.74370086 5.08413414 22.32030609 1 5 C0.66309282 3.33405209 0.32877526 1.6675718 0 0 Z " fill="#9BCA6E" transform="translate(354,244)"/>
<path d="M0 0 C0.33 0 0.66 0 1 0 C1.93964374 12.50629684 1.76076299 21.63325724 -4.89453125 32.38671875 C-15.93203679 50.36152103 -16.54783252 76.60460886 -12.23828125 96.72265625 C-8.72555497 109.76322246 -3.14689586 123.19251878 5 134 C5.61359375 134.83144531 6.2271875 135.66289062 6.859375 136.51953125 C21.48907665 155.5674028 40.80362758 167.796319 64 174 C64 174.66 64 175.32 64 176 C62.00283825 176.65455759 60.00209613 177.2981943 58 177.9375 C56.88625 178.29714844 55.7725 178.65679687 54.625 179.02734375 C47.7121204 180.88220045 43.37220046 181.82099862 36.86108398 178.34521484 C36.16442627 177.94254395 35.46776855 177.53987305 34.75 177.125 C34.01273682 176.71588379 33.27547363 176.30676758 32.51586914 175.88525391 C24.3603793 171.25308459 16.88746252 165.90186048 10.25 159.25 C5.56070544 154.96717706 -0.30407913 153.75759617 -6.29296875 152.140625 C-13.16525055 150.02607676 -15.99320031 147.175535 -19.5 141 C-19.88873291 140.33226562 -20.27746582 139.66453125 -20.67797852 138.9765625 C-25.06434179 131.329953 -28.89916706 123.59431659 -31 115 C-27.27034861 112.96564469 -25.33094958 112 -21 112 C-21.26554688 111.22398437 -21.53109375 110.44796875 -21.8046875 109.6484375 C-27.98883171 90.73488697 -29.023154 70.5207965 -25 51 C-24.87882813 50.26652344 -24.75765625 49.53304687 -24.6328125 48.77734375 C-21.47062051 31.51435688 -12.44597418 12.44597418 0 0 Z " fill="#A0CF6D" transform="translate(166,199)"/>
<path d="M0 0 C1.21171875 0.0103125 2.4234375 0.020625 3.671875 0.03125 C11.07714241 0.15892702 18.0045112 0.9772193 25.25 2.5 C24.92 6.13 24.59 9.76 24.25 13.5 C25.3225 13.561875 26.395 13.62375 27.5 13.6875 C33.50204348 14.4230968 38.779473 17.04847753 44.25 19.5 C49.1989791 21.65748993 54.18429615 23.63368805 59.25 25.5 C59.25 26.16 59.25 26.82 59.25 27.5 C59.95898438 27.7475 60.66796875 27.995 61.3984375 28.25 C84.85270686 38.53132355 100.83968342 63.76820401 110.25 86.5 C110.25 87.16 110.25 87.82 110.25 88.5 C107.13626628 87.00079488 104.12771795 85.41847864 101.25 83.5 C101.25 82.84 101.25 82.18 101.25 81.5 C99.9196875 81.12875 99.9196875 81.12875 98.5625 80.75 C92.31643087 78.39299278 89.54238997 74.7277257 86.25 69.0625 C79.04982733 57.36644487 69.56586212 48.75524181 57.92333984 41.56933594 C56.33825035 40.5890667 54.78980787 39.54996581 53.25 38.5 C53.25 37.84 53.25 37.18 53.25 36.5 C52.38375 36.231875 51.5175 35.96375 50.625 35.6875 C47.25 34.5 47.25 34.5 44.5625 33.125 C20.03679393 21.09352155 -8.64882817 21.9799146 -34.3515625 29.5625 C-46.12623144 33.68793145 -57.19083583 40.34790244 -66.11328125 49.06640625 C-67.75 50.5 -67.75 50.5 -69.75 50.5 C-70.41 51.82 -71.07 53.14 -71.75 54.5 C-72.41 54.5 -73.07 54.5 -73.75 54.5 C-72.7367065 37.76318667 -72.7367065 37.76318667 -66.5625 32.25 C-65.31335346 31.30399362 -64.04167663 30.38705503 -62.75 29.5 C-62.12867188 29.05914062 -61.50734375 28.61828125 -60.8671875 28.1640625 C-56.49118134 25.24081952 -51.96654966 23.26108794 -47.0546875 21.40234375 C-44.59090653 20.48501913 -44.59090653 20.48501913 -41.75 18.9375 C-39.03606038 17.6370706 -36.77555321 17.00898542 -33.875 16.3125 C-28.90146767 14.89575166 -26.22049954 12.56257397 -22.83203125 8.73046875 C-22.14496094 7.99441406 -21.45789063 7.25835937 -20.75 6.5 C-20.31703613 5.97809082 -19.88407227 5.45618164 -19.43798828 4.91845703 C-13.85848247 -0.9531513 -7.67399171 -0.2579493 0 0 Z " fill="#A0CE6D" transform="translate(253.75,146.5)"/>
<path d="M0 0 C0.66 0 1.32 0 2 0 C4.23377062 19.41349735 4.23377062 19.41349735 -1.359375 27.87109375 C-5.8655003 36.46491843 -6.53133396 45.89377362 -6.4375 55.4375 C-6.42920166 56.53425049 -6.42090332 57.63100098 -6.41235352 58.76098633 C-6.24269337 66.88716384 -5.38500363 73.53485807 -2 81 C-1.525625 82.13050781 -1.05125 83.26101563 -0.5625 84.42578125 C7.95191125 103.15339253 22.2898357 114.95027815 41 123 C43.32049449 123.74791851 45.63952832 124.38292238 48 125 C45.55372465 127.79105241 42.97366033 129.19034998 39.625 130.75 C38.68914062 131.19859375 37.75328125 131.6471875 36.7890625 132.109375 C32.33132828 133.53285315 29.94508108 132.4523465 25.80078125 130.46875 C24.63221204 129.82290028 23.46964351 129.16610416 22.3125 128.5 C21.69600586 128.15122803 21.07951172 127.80245605 20.44433594 127.44311523 C16.38053375 125.05565787 13.11574846 122.39624451 9.75 119.0625 C5.63342926 115.11464118 3.01055556 114.19380529 -2.6171875 114.0703125 C-6.52096905 113.95511895 -9.71692099 113.14608195 -13 111 C-18.91438148 104.62846826 -25 93.67711732 -25 85 C-22.36 84.01 -19.72 83.02 -17 82 C-17.185625 80.6696875 -17.185625 80.6696875 -17.375 79.3125 C-17.46394531 78.66925781 -17.55289063 78.02601563 -17.64453125 77.36328125 C-17.90567864 75.62708155 -18.19953185 73.89572067 -18.51171875 72.16796875 C-22.57580139 48.79228773 -18.19431548 26.70256274 -5 7 C-4.29810547 5.92878906 -4.29810547 5.92878906 -3.58203125 4.8359375 C-2.45483696 3.17654884 -1.23633 1.579755 0 0 Z " fill="#7BB171" transform="translate(190,218)"/>
<path d="M0 0 C1.36725987 0.00269146 2.73453263 0.0177468 4.1015625 0.04296875 C5.16890625 0.05263672 5.16890625 0.05263672 6.2578125 0.0625 C12.44038675 0.15113906 18.57773679 0.57832057 24.7265625 1.23046875 C25.79967108 4.50232428 25.61919352 6.65994467 24.7890625 9.98046875 C24.59441406 10.7796875 24.39976562 11.57890625 24.19921875 12.40234375 C23.96525391 13.30726563 23.96525391 13.30726563 23.7265625 14.23046875 C24.45875 14.37097656 25.1909375 14.51148438 25.9453125 14.65625 C35.1299236 16.552511 43.30817647 20.15322536 51.7265625 24.23046875 C51.7265625 24.89046875 51.7265625 25.55046875 51.7265625 26.23046875 C52.78230469 26.56691406 52.78230469 26.56691406 53.859375 26.91015625 C57.33939191 28.51267085 59.85434245 30.7494815 62.6015625 33.35546875 C63.13040039 33.85264404 63.65923828 34.34981934 64.20410156 34.86206055 C65.72411857 36.30589031 67.22876508 37.76363491 68.7265625 39.23046875 C69.40460938 39.89433594 70.08265625 40.55820313 70.78125 41.2421875 C76.29549228 47.09948172 79.95294852 54.18638932 83.7265625 61.23046875 C84.13261719 61.9678125 84.53867187 62.70515625 84.95703125 63.46484375 C85.7265625 65.23046875 85.7265625 65.23046875 85.7265625 68.23046875 C84.37107406 67.79708129 83.01724974 67.3584888 81.6640625 66.91796875 C80.90996094 66.67433594 80.15585937 66.43070312 79.37890625 66.1796875 C78.50363281 65.86644531 77.62835938 65.55320312 76.7265625 65.23046875 C75.56253906 64.82957031 74.39851563 64.42867188 73.19921875 64.015625 C69.06760619 61.89172518 67.66566121 59.89394803 65.2265625 55.98046875 C59.29583741 46.86663591 52.55377666 40.14407583 42.7265625 35.23046875 C42.7265625 34.57046875 42.7265625 33.91046875 42.7265625 33.23046875 C41.71851563 32.95332031 40.71046875 32.67617187 39.671875 32.390625 C34.69830038 30.97014005 29.88215758 29.14013565 25.03125 27.3515625 C10.06494631 22.27434127 -6.93047534 24.26873034 -21.2734375 30.23046875 C-22.88798828 30.88208984 -22.88798828 30.88208984 -24.53515625 31.546875 C-31.57517944 34.71082908 -36.65128432 38.90609215 -42.09375 44.25390625 C-44.2734375 46.23046875 -44.2734375 46.23046875 -46.2734375 46.23046875 C-46.32803948 44.35580085 -46.36649994 42.4806597 -46.3984375 40.60546875 C-46.42164063 39.56132812 -46.44484375 38.5171875 -46.46875 37.44140625 C-46.25359514 33.9042604 -45.79990586 31.43692959 -44.2734375 28.23046875 C-41.65625 26.0703125 -41.65625 26.0703125 -38.3984375 24.16796875 C-37.82416016 23.83071777 -37.24988281 23.4934668 -36.65820312 23.14599609 C-30.35172796 19.53514189 -23.66775084 16.58981223 -16.72265625 14.44140625 C-13.42585021 12.81140645 -11.82827324 10.62380518 -9.5859375 7.73046875 C-3.73994076 0.26331325 -3.73994076 0.26331325 0 0 Z " fill="#7BB071" transform="translate(248.2734375,176.76953125)"/>
<path d="M0 0 C5.29516247 1.27491873 10.2407655 2.85587469 13.98046875 7.06445312 C18.20670961 15.08783376 16.26233849 29.46091402 14 38 C13.43446653 43.65533466 14.77904753 47.44677891 17.125 52.47265625 C18.38946803 56.12493669 18.80119495 59.12216695 17.24511719 62.76928711 C16.19289049 64.71211561 15.06126284 66.57357478 13.875 68.4375 C13.46773682 69.09693604 13.06047363 69.75637207 12.64086914 70.43579102 C9.7798945 74.98752102 6.71245973 79.09715772 3 83 C-0.40739705 80.75421558 -3.76478258 78.48862878 -7 76 C-7.25910156 76.59167969 -7.51820313 77.18335938 -7.78515625 77.79296875 C-15.02917682 90.95332767 -34.82109633 97.75763643 -48.17578125 102.203125 C-55.50424653 104.27090774 -62.69424239 104.18337568 -70.25 104.1875 C-71.44625 104.19974609 -72.6425 104.21199219 -73.875 104.22460938 C-75.58429688 104.22750977 -75.58429688 104.22750977 -77.328125 104.23046875 C-78.88901855 104.23663208 -78.88901855 104.23663208 -80.48144531 104.24291992 C-83 104 -83 104 -85 102 C-84.22914063 101.44570313 -83.45828125 100.89140625 -82.6640625 100.3203125 C-81.15972656 99.23363281 -81.15972656 99.23363281 -79.625 98.125 C-78.12839844 97.04605469 -78.12839844 97.04605469 -76.6015625 95.9453125 C-74.00530106 94.1005342 -74.00530106 94.1005342 -72 92 C-69.59375 91.76171875 -69.59375 91.76171875 -66.5 91.6875 C-45.24872212 90.30052501 -28.26909866 81.20033954 -13.94140625 65.78515625 C-2.72219932 52.36708471 2.17372723 35.86851196 2.1875 18.625 C2.19974609 17.82578125 2.21199219 17.0265625 2.22460938 16.203125 C2.2383014 10.56201049 1.44045364 5.45005631 0 0 Z " fill="#76AD72" transform="translate(324,253)"/>
<path d="M0 0 C4.73379735 -0.11514642 9.46269229 -0.21455657 14.19677734 -0.2746582 C15.80501818 -0.29972128 17.41314602 -0.33378171 19.02099609 -0.37719727 C21.33980239 -0.43821848 23.65709665 -0.46628963 25.9765625 -0.48828125 C26.68930328 -0.51408768 27.40204407 -0.5398941 28.13638306 -0.56648254 C32.02670172 -0.56864233 34.46499297 -0.00815373 37.45385742 2.39013672 C40 5 40 5 40.76171875 7.24609375 C40.72498047 8.33083984 40.72498047 8.33083984 40.6875 9.4375 C40.69330078 10.51837891 40.69330078 10.51837891 40.69921875 11.62109375 C39.66626191 15.1354553 37.81586807 17.71437966 35 20 C31.99899173 20.54070475 29.83154563 20.71051888 26.85546875 20.5859375 C26.08568192 20.57744781 25.31589508 20.56895813 24.52278137 20.56021118 C22.0762329 20.52675703 19.63304309 20.45150592 17.1875 20.375 C15.52413632 20.34488948 13.86072071 20.31751555 12.19726562 20.29296875 C8.12919208 20.23209982 4.0683304 20.11472054 0 20 C0 13.4 0 6.8 0 0 Z " fill="#060805" transform="translate(234,250)"/>
<path d="M0 0 C1.31478333 0.00424484 1.31478333 0.00424484 2.65612793 0.00857544 C5.42714699 0.01967758 8.19783035 0.04476296 10.96875 0.0703125 C12.8593703 0.08035521 14.74999571 0.08947879 16.640625 0.09765625 C21.25012729 0.11958415 25.85938194 0.15404405 30.46875 0.1953125 C30.46875 0.5253125 30.46875 0.8553125 30.46875 1.1953125 C28.89577148 1.2250415 28.89577148 1.2250415 27.29101562 1.25537109 C23.36956324 1.33192023 19.44845828 1.42055818 15.52734375 1.51269531 C13.8360077 1.55078265 12.14459622 1.5856694 10.453125 1.6171875 C8.01014394 1.66328148 5.56767319 1.72119809 3.125 1.78125 C2.37883423 1.79280121 1.63266846 1.80435242 0.8638916 1.81625366 C-4.20888 1.95621812 -8.63517741 2.86026031 -13.53125 4.1953125 C-16.25186968 4.40523686 -18.795207 4.29302832 -21.53125 4.1953125 C-14.79303262 0.2646857 -7.5797149 -0.09385368 0 0 Z " fill="#334427" transform="translate(243.53125,138.8046875)"/>
<path d="M0 0 C3 1 3 1 4.24609375 3.44140625 C4.63925781 4.47136719 5.03242187 5.50132812 5.4375 6.5625 C6.92778707 10.36295852 8.45695871 14.02120616 10.375 17.625 C10.91125 18.73875 11.4475 19.8525 12 21 C11.67 21.66 11.34 22.32 11 23 C6.5173816 15.5147726 2.33777388 8.47443032 0 0 Z " fill="#366C63" transform="translate(79,344)"/>
<path d="M0 0 C0.66 0.33 1.32 0.66 2 1 C1.67 1.66 1.34 2.32 1 3 C0.92883618 5.37402501 0.91590915 7.75000677 0.9375 10.125 C0.94652344 11.40632812 0.95554688 12.68765625 0.96484375 14.0078125 C0.97644531 14.99523437 0.98804688 15.98265625 1 17 C0.01 17.33 -0.98 17.66 -2 18 C-2.3690205 5.33029613 -2.3690205 5.33029613 0 0 Z " fill="#5A8253" transform="translate(204,205)"/>
<path d="M0 0 C0.671875 1.76953125 0.671875 1.76953125 1 4 C-0.109375 5.88671875 -0.109375 5.88671875 -1.75 7.6875 C-2.28109375 8.28949219 -2.8121875 8.89148438 -3.359375 9.51171875 C-5 11 -5 11 -8 12 C-6.49087042 7.01987239 -3.44338151 3.75740058 0 0 Z " fill="#608855" transform="translate(143,177)"/>
<path d="M0 0 C0.33 0 0.66 0 1 0 C1 6.93 1 13.86 1 21 C0.67 21 0.34 21 0 21 C-0.33 15.72 -0.66 10.44 -1 5 C-1.99 5.33 -2.98 5.66 -4 6 C-2.84826645 3.53199953 -1.95216435 1.95216435 0 0 Z " fill="#84AA58" transform="translate(166,199)"/>
<path d="M0 0 C2 2 2 2 2 5 C-0.64 5.99 -3.28 6.98 -6 8 C-6 10.31 -6 12.62 -6 15 C-8.5654594 12.4345406 -8.54046087 10.52313332 -9 7 C-6.03 6.01 -3.06 5.02 0 4 C0 2.68 0 1.36 0 0 Z " fill="#356458" transform="translate(85,327)"/>
<path d="M0 0 C2.34914492 2.34914492 2.73140357 3.95679446 3.625 7.125 C3.88539063 8.03507813 4.14578125 8.94515625 4.4140625 9.8828125 C4.70410156 10.93082031 4.70410156 10.93082031 5 12 C2 11 2 11 0.8125 9.375 C-0.27499354 6.19617272 -0.1282071 3.33338467 0 0 Z " fill="#3E6953" transform="translate(418,202)"/>
<path d="M0 0 C0.66 0.33 1.32 0.66 2 1 C-0.66666667 5 -3.33333333 9 -6 13 C-5.63118644 6.85310727 -4.09949571 4.30972626 0 0 Z " fill="#7D9F51" transform="translate(188,178)"/>
<path d="M0 0 C1.17571451 3.67410785 1.07366746 7.16929183 1 11 C-0.32 11.33 -1.64 11.66 -3 12 C-2.68950274 10.56206608 -2.3765224 9.1246682 -2.0625 7.6875 C-1.88847656 6.88699219 -1.71445313 6.08648437 -1.53515625 5.26171875 C-1 3 -1 3 0 0 Z " fill="#587745" transform="translate(160,168)"/>
<path d="M0 0 C0.33 0 0.66 0 1 0 C1 2.31 1 4.62 1 7 C1.66 7.33 2.32 7.66 3 8 C1.02 8.99 1.02 8.99 -1 10 C-0.67 6.7 -0.34 3.4 0 0 Z " fill="#70924E" transform="translate(181,191)"/>
<path d="M0 0 C0.66 1.32 1.32 2.64 2 4 C0.75 6.75 0.75 6.75 -1 9 C-1.66 9 -2.32 9 -3 9 C-2.01 6.03 -1.02 3.06 0 0 Z " fill="#3A5F48" transform="translate(137,150)"/>
<path d="M0 0 C0.33 0.99 0.66 1.98 1 3 C-1 6 -1 6 -3.125 6.6875 C-3.74375 6.790625 -4.3625 6.89375 -5 7 C-3.70700306 4.11562221 -2.34058637 2.12780579 0 0 Z " fill="#417360" transform="translate(118,159)"/>
<path d="M0 0 C0.99 0.33 1.98 0.66 3 1 C3.73046875 3.06640625 3.73046875 3.06640625 4.1875 5.5625 C4.34605469 6.38878906 4.50460938 7.21507812 4.66796875 8.06640625 C4.77753906 8.70449219 4.88710937 9.34257812 5 10 C3 9 3 9 2.1484375 6.93359375 C1.89320312 6.10988281 1.63796875 5.28617187 1.375 4.4375 C1.11460938 3.61121094 0.85421875 2.78492188 0.5859375 1.93359375 C0.39257812 1.29550781 0.19921875 0.65742188 0 0 Z " fill="#31625A" transform="translate(79,344)"/>
<path d="M0 0 C3 1 3 1 4.1875 3.0625 C4.455625 3.701875 4.72375 4.34125 5 5 C4.34 5 3.68 5 3 5 C2.34 5.99 1.68 6.98 1 8 C0.67 5.36 0.34 2.72 0 0 Z " fill="#4F7B59" transform="translate(415,228)"/>
<path d="M0 0 C1.32 0.33 2.64 0.66 4 1 C1.03 3.475 1.03 3.475 -2 6 C-2.66 5.67 -3.32 5.34 -4 5 C-2.68 3.35 -1.36 1.7 0 0 Z " fill="#729B5B" transform="translate(243,179)"/>
</svg>
